<svg width="32" height="32" viewBox="0 0 32 32" fill="none" xmlns="http://www.w3.org/2000/svg">
<g clip-path="url(#clip0_1_388)">
<path d="M16 32C24.8366 32 32 24.8366 32 16C32 7.16344 24.8366 0 16 0C7.16344 0 0 7.16344 0 16C0 24.8366 7.16344 32 16 32Z" fill="url(#paint0_radial_1_388)"/>
<path d="M15.6625 10.4904C14.456 9.71761 13.0528 9.30788 11.62 9.31C10.7676 9.30913 9.9213 9.45365 9.1175 9.73735C9.00492 9.77715 8.90745 9.85088 8.8385 9.94837C8.76955 10.0459 8.73252 10.1623 8.7325 10.2817V21.2542C8.73251 21.3466 8.75469 21.4377 8.79717 21.5197C8.83964 21.6017 8.90118 21.6724 8.97661 21.7257C9.05205 21.779 9.13917 21.8135 9.23068 21.8262C9.32219 21.8389 9.4154 21.8294 9.5025 21.7986C10.1827 21.5587 10.8988 21.4366 11.62 21.4375C13.1561 21.4375 14.5637 21.9819 15.6625 22.8897V10.4904ZM16.8175 22.8897C17.9543 21.9489 19.3843 21.4352 20.86 21.4375C21.6038 21.4375 22.3153 21.5653 22.9775 21.7994C23.0647 21.8302 23.1579 21.8397 23.2495 21.8269C23.3411 21.8142 23.4283 21.7797 23.5037 21.7263C23.5792 21.6728 23.6407 21.6021 23.6831 21.5199C23.7255 21.4378 23.7476 21.3467 23.7475 21.2542V10.2817C23.7475 10.1623 23.7105 10.0459 23.6415 9.94837C23.5726 9.85088 23.4751 9.77715 23.3625 9.73735C22.5587 9.45365 21.7124 9.30913 20.86 9.31C19.4272 9.30788 18.024 9.71761 16.8175 10.4904V22.8897Z" fill="white" fill-opacity="0.85"/>
</g>
<defs>
<radialGradient id="paint0_radial_1_388" cx="0" cy="0" r="1" gradientUnits="userSpaceOnUse" gradientTransform="translate(16 13.5) rotate(90) scale(18.5)">
<stop offset="0.169" stop-color="#F5BF67"/>
<stop offset="1" stop-color="#E93348"/>
</radialGradient>
<clipPath id="clip0_1_388">
<rect width="32" height="32" fill="white"/>
</clipPath>
</defs>
</svg>
