<svg width="32" height="32" viewBox="0 0 32 32" fill="none" xmlns="http://www.w3.org/2000/svg">
<g clip-path="url(#clip0_1_361)">
<path d="M16 32C24.8366 32 32 24.8366 32 16C32 7.16344 24.8366 0 16 0C7.16344 0 0 7.16344 0 16C0 24.8366 7.16344 32 16 32Z" fill="url(#paint0_radial_1_361)"/>
<path fill-rule="evenodd" clip-rule="evenodd" d="M16 6.25C10.615 6.25 6.25 10.615 6.25 16C6.25 21.385 10.615 25.75 16 25.75C21.385 25.75 25.75 21.385 25.75 16C25.75 10.615 21.385 6.25 16 6.25ZM10.262 10.072C9.04499 11.2503 8.2202 12.7747 7.89967 14.4381C7.57914 16.1014 7.77841 17.8231 8.47041 19.3693C9.16242 20.9155 10.3136 22.2112 11.7676 23.0803C13.2216 23.9495 14.9079 24.35 16.5974 24.2275C18.2869 24.105 19.8978 23.4653 21.2111 22.3954C22.5245 21.3256 23.4767 19.8774 23.9383 18.2475C24.4 16.6177 24.3488 14.8852 23.7916 13.2855C23.2344 11.6858 22.1983 10.2964 20.824 9.306C20.4858 9.84661 20.0365 10.3092 19.506 10.663L18.25 11.5L18.415 11.83C18.4909 11.9819 18.5171 12.1539 18.4899 12.3215C18.4626 12.4892 18.3833 12.644 18.2631 12.764C18.143 12.884 17.9881 12.9632 17.8204 12.9903C17.6528 13.0174 17.4808 12.9911 17.329 12.915L16.725 12.613C16.514 12.5075 16.2751 12.4709 16.0421 12.5086C15.8092 12.5463 15.594 12.6563 15.427 12.823L15.295 12.954C14.856 13.394 14.856 14.106 15.295 14.545L15.591 14.841C15.847 15.098 16.213 15.215 16.571 15.155L17.741 14.96C18.064 14.906 18.395 14.996 18.646 15.205L19.976 16.313C20.296 16.58 20.436 17.007 20.334 17.413C19.9514 18.9421 19.1606 20.3385 18.046 21.453L17.323 22.177C17.156 22.3437 16.9408 22.4537 16.7079 22.4914C16.4749 22.5291 16.236 22.4925 16.025 22.387L15.872 22.311C15.6851 22.2176 15.528 22.074 15.4181 21.8963C15.3083 21.7187 15.2501 21.5139 15.25 21.305V20.216C15.25 19.918 15.131 19.631 14.92 19.42L13.573 18.073C13.4063 17.906 13.2963 17.6908 13.2586 17.4579C13.2209 17.2249 13.2575 16.986 13.363 16.775L13.75 16L12.11 14.36C11.2255 13.4756 10.6395 12.3368 10.434 11.103L10.262 10.072Z" fill="white" fill-opacity="0.85"/>
</g>
<defs>
<radialGradient id="paint0_radial_1_361" cx="0" cy="0" r="1" gradientUnits="userSpaceOnUse" gradientTransform="translate(16 13.5) rotate(90) scale(18.5)">
<stop offset="0.169" stop-color="#A3E635"/>
<stop offset="1" stop-color="#166534"/>
</radialGradient>
<clipPath id="clip0_1_361">
<rect width="32" height="32" fill="white"/>
</clipPath>
</defs>
</svg>
