<svg width="32" height="32" viewBox="0 0 32 32" fill="none" xmlns="http://www.w3.org/2000/svg">
<g clip-path="url(#clip0_1_16)">
<mask id="mask0_1_16" style="mask-type:alpha" maskUnits="userSpaceOnUse" x="0" y="0" width="32" height="32">
<path d="M16 32C24.8366 32 32 24.8366 32 16C32 7.16344 24.8366 0 16 0C7.16344 0 0 7.16344 0 16C0 24.8366 7.16344 32 16 32Z" fill="black"/>
</mask>
<g mask="url(#mask0_1_16)">
<path d="M16 32C24.8366 32 32 24.8366 32 16C32 7.16344 24.8366 0 16 0C7.16344 0 0 7.16344 0 16C0 24.8366 7.16344 32 16 32Z" fill="#FDF6ED"/>
<path d="M20.6244 20.1492C18.5877 20.0992 16.9719 18.2048 17.0163 15.9132C17.0581 13.6893 18.6505 11.9008 20.6244 11.8537C21.4873 11.8537 22.3213 12.2038 22.9724 12.8421C23.2364 13.0922 23.6312 13.0569 23.8535 12.7598C23.9502 12.6333 24.0025 12.4715 23.9999 12.3038V8.40611C23.9999 7.62952 23.4404 7 22.7501 7H10.2498C9.55952 7 9 7.62952 9 8.40611V23.5939C9 24.3705 9.55952 25 10.2498 25H22.7501C23.4404 25 23.9999 24.3705 23.9999 23.5939V19.7021C23.9999 19.3138 23.7228 18.999 23.3777 18.9961C23.2286 18.9961 23.0848 19.0549 22.9724 19.1608C22.3213 19.7962 21.4873 20.1463 20.6244 20.1463V20.1492Z" fill="#EE5A29"/>
</g>
</g>
<defs>
<clipPath id="clip0_1_16">
<rect width="32" height="32" fill="white"/>
</clipPath>
</defs>
</svg>
