<svg width="32" height="32" viewBox="0 0 32 32" fill="none" xmlns="http://www.w3.org/2000/svg">
<g clip-path="url(#clip0_1_298)">
<path d="M16 32C24.8366 32 32 24.8366 32 16C32 7.16344 24.8366 0 16 0C7.16344 0 0 7.16344 0 16C0 24.8366 7.16344 32 16 32Z" fill="url(#paint0_radial_1_298)"/>
<path d="M14.3432 11.8283V19.8205H16.1115C17.4247 19.8205 18.4769 19.4773 19.2683 18.7906C20.0591 18.1043 20.4547 17.1268 20.4547 15.858V15.813C20.4547 14.5448 20.0591 13.5631 19.2683 12.8693C18.4769 12.1753 17.4247 11.8283 16.1115 11.8283H14.3432ZM10 8H16.0669C17.455 8 18.6974 8.19021 19.7942 8.57085C20.8913 8.95137 21.8164 9.48516 22.5704 10.1717C23.3238 10.8582 23.8985 11.6754 24.2941 12.623C24.6894 13.5708 24.8875 14.6119 24.8875 15.7459V15.7908C24.8875 16.9251 24.686 17.9734 24.2831 18.9362C23.88 19.8988 23.298 20.7309 22.5368 21.4323C21.7757 22.134 20.8428 22.6824 19.7385 23.0777C18.6336 23.4736 17.3801 23.671 15.9773 23.671H10V8Z" fill="white"/>
</g>
<defs>
<radialGradient id="paint0_radial_1_298" cx="0" cy="0" r="1" gradientUnits="userSpaceOnUse" gradientTransform="translate(16 13.5) rotate(90) scale(18.5)">
<stop offset="0.169" stop-color="#3C76B8"/>
<stop offset="1" stop-color="#202651"/>
</radialGradient>
<clipPath id="clip0_1_298">
<rect width="32" height="32" fill="white"/>
</clipPath>
</defs>
</svg>
