<svg width="32" height="32" viewBox="0 0 32 32" fill="none" xmlns="http://www.w3.org/2000/svg">
<g clip-path="url(#clip0_1_354)">
<path d="M16 32C24.8366 32 32 24.8366 32 16C32 7.16344 24.8366 0 16 0C7.16344 0 0 7.16344 0 16C0 24.8366 7.16344 32 16 32Z" fill="url(#paint0_radial_1_354)"/>
<path d="M19.8167 10.0415C17.8954 10.8105 15.8445 11.2038 13.775 11.2H13.25C12.3279 11.1987 11.439 11.544 10.7597 12.1675C10.0804 12.791 9.66026 13.6471 9.58271 14.5659C9.50517 15.4848 9.77586 16.3992 10.3411 17.1277C10.9063 17.8562 11.7247 18.3457 12.634 18.4989C12.8657 19.4472 13.1888 20.3709 13.5986 21.2569C13.9234 21.9597 14.7704 22.1809 15.406 21.8141L15.8659 21.5488C16.4819 21.1932 16.6814 20.4337 16.4063 19.8212C16.2409 19.4539 16.0942 19.0784 15.9667 18.6963C17.3093 18.8769 18.5987 19.2213 19.8167 19.7085C20.3371 18.1502 20.6017 16.5179 20.6 14.875C20.6 13.1852 20.3249 11.5605 19.8167 10.0415ZM20.782 9.618C21.3585 11.3107 21.6518 13.0869 21.65 14.875C21.652 16.7833 21.3179 18.677 20.663 20.4694C20.6393 20.5342 20.6286 20.603 20.6314 20.6719C20.6343 20.7408 20.6507 20.8084 20.6797 20.871C20.7088 20.9336 20.7498 20.9898 20.8006 21.0365C20.8513 21.0832 20.9108 21.1194 20.9756 21.1432C21.0403 21.1669 21.1091 21.1776 21.178 21.1747C21.2469 21.1719 21.3146 21.1554 21.3772 21.1264C21.4397 21.0974 21.496 21.0563 21.5426 21.0056C21.5893 20.9548 21.6256 20.8954 21.6493 20.8306C22.18 19.3815 22.5132 17.8676 22.6398 16.3296C23.0158 15.9388 23.2256 15.4173 23.225 14.875C23.225 14.3101 23.0017 13.797 22.6398 13.4204C22.5124 11.8825 22.1792 10.3687 21.6493 8.9194C21.6256 8.85464 21.5893 8.79518 21.5426 8.74443C21.496 8.69367 21.4397 8.65261 21.3772 8.62359C21.2508 8.56497 21.1063 8.55895 20.9756 8.60685C20.8448 8.65475 20.7384 8.75264 20.6797 8.87899C20.6211 9.00535 20.6151 9.14981 20.663 9.2806C20.7043 9.3926 20.7442 9.5046 20.782 9.618Z" fill="white" fill-opacity="0.85"/>
</g>
<defs>
<radialGradient id="paint0_radial_1_354" cx="0" cy="0" r="1" gradientUnits="userSpaceOnUse" gradientTransform="translate(16 13.5) rotate(90) scale(18.5)">
<stop offset="0.169" stop-color="#22D3EE"/>
<stop offset="1" stop-color="#7451FF"/>
</radialGradient>
<clipPath id="clip0_1_354">
<rect width="32" height="32" fill="white"/>
</clipPath>
</defs>
</svg>
