<svg width="32" height="32" viewBox="0 0 32 32" fill="none" xmlns="http://www.w3.org/2000/svg">
<g clip-path="url(#clip0_1_376)">
<mask id="mask0_1_376" style="mask-type:luminance" maskUnits="userSpaceOnUse" x="0" y="0" width="32" height="32">
<path d="M16 32C24.8366 32 32 24.8366 32 16C32 7.16344 24.8366 0 16 0C7.16344 0 0 7.16344 0 16C0 24.8366 7.16344 32 16 32Z" fill="white"/>
</mask>
<g mask="url(#mask0_1_376)">
<path d="M16 32C24.8366 32 32 24.8366 32 16C32 7.16344 24.8366 0 16 0C7.16344 0 0 7.16344 0 16C0 24.8366 7.16344 32 16 32Z" fill="white"/>
<mask id="mask1_1_376" style="mask-type:luminance" maskUnits="userSpaceOnUse" x="6" y="9" width="20" height="15">
<path d="M6 9H25.5838V23.829H6V9Z" fill="white"/>
</mask>
<g mask="url(#mask1_1_376)">
<path d="M9.00578 9.13831C8.9507 9.11486 8.96419 9.03282 9.02394 9.02946C10.4739 8.94405 11.934 9.0531 12.7984 9.24399C14.3333 9.58338 15.715 10.1907 16.6673 11.6744C17.0762 12.3116 17.3734 13.0141 17.4674 13.7359C17.4689 13.7468 17.468 13.758 17.4649 13.7685C17.4618 13.7791 17.4564 13.7889 17.4493 13.7972C17.4421 13.8056 17.4332 13.8122 17.4232 13.8168C17.4132 13.8214 17.4024 13.8238 17.3914 13.8239H12.2047C12.1852 13.8238 12.1664 13.8163 12.1522 13.8029C12.138 13.7895 12.1294 13.7712 12.1282 13.7516C12.0178 12.0639 11.1165 10.0324 9.00578 9.13831ZM22.5667 23.6905C22.6218 23.714 22.6082 23.796 22.5486 23.7994C21.0986 23.8848 19.6384 23.7757 18.774 23.5848C17.2393 23.2456 15.8575 22.6382 14.9052 21.1544C14.4964 20.5172 14.1991 19.8147 14.105 19.0929C14.1035 19.082 14.1044 19.0709 14.1075 19.0603C14.1107 19.0497 14.116 19.0399 14.1232 19.0316C14.1304 19.0233 14.1393 19.0166 14.1493 19.012C14.1593 19.0074 14.1701 19.005 14.1811 19.005H19.368C19.4087 19.005 19.4418 19.0366 19.4446 19.0773C19.5549 20.765 20.4562 22.7964 22.5667 23.6905ZM11.7902 14.3201C11.823 14.2738 11.7756 14.2134 11.7233 14.2347C10.4744 14.7492 5.03763 17.3626 6.14945 20.9129C7.12695 24.0052 12.3216 23.8755 13.5198 23.803C13.5795 23.7994 13.5928 23.7175 13.5378 23.6944C11.3937 22.7882 10.4963 20.7096 10.4082 19.018C10.3443 17.7929 10.659 15.9183 11.7902 14.3201ZM19.794 18.5087C19.7612 18.555 19.8086 18.6154 19.8608 18.5941C21.1098 18.0799 26.5469 15.4663 25.435 11.916C24.4575 8.82358 19.2627 8.95332 18.0645 9.02558C18.005 9.02925 17.9914 9.11079 18.0465 9.13413C20.1908 10.0405 21.0883 12.1189 21.1763 13.8107C21.2402 15.036 20.9255 16.9105 19.7943 18.5087H19.794Z" fill="#080A0A"/>
</g>
</g>
</g>
<defs>
<clipPath id="clip0_1_376">
<rect width="32" height="32" fill="white"/>
</clipPath>
</defs>
</svg>
