<svg width="32" height="32" viewBox="0 0 32 32" fill="none" xmlns="http://www.w3.org/2000/svg">
<g clip-path="url(#clip0_1_342)">
<mask id="mask0_1_342" style="mask-type:luminance" maskUnits="userSpaceOnUse" x="0" y="0" width="32" height="32">
<path d="M16 32C24.8366 32 32 24.8366 32 16C32 7.16344 24.8366 0 16 0C7.16344 0 0 7.16344 0 16C0 24.8366 7.16344 32 16 32Z" fill="white"/>
</mask>
<g mask="url(#mask0_1_342)">
<path d="M16 32C24.8366 32 32 24.8366 32 16C32 7.16344 24.8366 0 16 0C7.16344 0 0 7.16344 0 16C0 24.8366 7.16344 32 16 32Z" fill="white"/>
<path d="M8.3421 15.7224L8.19557 15.5715V15.0032L8.3421 14.866H8.91043L9.05194 15.0032V15.5715L8.91043 15.7224H8.3421Z" fill="#292829"/>
<path d="M11.4576 14.881H10.3891V14.6857H11.3777L11.8608 14.2168L11.7623 13.9495H10.3891V13.7542H11.8993L12.0877 14.2684L11.4576 14.881ZM19.3703 8H14.8895L10.1186 11.8115V13.333L9.51046 13.9495H8.25566V12.4798L8.7214 12.0027V11.8161H8.42976L6.00206 14.2743V16.842L6.93354 17.7795V15.8817L7.63731 15.3017H8.00025V14.9222L8.26096 14.6707H8.99144L9.24724 14.9222V15.6526L8.99144 15.9177H8.26096L8.00025 15.6526V15.512H7.71233L7.14388 15.9801V17.9882L9.99971 20.8422L11.2905 19.5527L15.3788 23.64H16.8644V21.8221H18.7754L19.3284 21.2659V10.8245H20.9672L21.5369 10.2567V8.63329L19.3703 8Z" fill="#292829"/>
<path d="M8.19705 19.3281H6.68484L6.42275 19.055V18.8422L6.60918 18.6821H6.87347V18.4868H6.53875L6.22743 18.7503V18.8593L6.00284 18.6375L6 17.1282L8.19705 19.3281Z" fill="#292829"/>
<path d="M8.48103 12.5655V13.7542H9.43064L9.92333 13.2525V10.0479L8.9017 11.0633V12.122L8.48103 12.5655Z" fill="#292829"/>
<path d="M26.9606 11.0843L26.8201 11.2302H26.2518L26.1042 11.0843V10.516L26.2518 10.3738H26.8201L26.9606 10.516V11.0843ZM26.9011 10.1785H26.1707L25.9089 10.435V10.7193H24.5373L23.1959 9.36719H21.2965V9.5625H23.1147L24.4561 10.9147H25.9089V11.1654L26.1707 11.4255H26.9011L27.1559 11.1654V10.435L26.9011 10.1785Z" fill="#292829"/>
<path d="M26.4648 15.5519L26.331 15.7073H25.7626L25.6084 15.5519V14.9836L25.7626 14.8509H26.331L26.4648 14.9836V15.5519ZM25.6815 14.6556L25.4131 14.9026V15.1815H21.7113L20.9601 15.9327H19.1781V16.128H21.0416L21.7927 15.3768H25.4131V15.6331L25.6815 15.9026H26.412L26.6601 15.6331V14.9026L26.412 14.6556H25.6815Z" fill="#292829"/>
<path d="M23.3548 21.4936L23.2265 21.6568H22.6581L22.4984 21.4936V20.9252L22.6581 20.8005H23.2265L23.3548 20.9252V21.4936ZM22.577 20.6052L22.3031 20.8442V21.116H20.4993L19.2123 22.408H16.7292V22.6033H19.2935L20.5806 21.3113H22.3031V21.5747L22.577 21.8521H23.3075L23.5501 21.5747V20.8442L23.3075 20.6052H22.577Z" fill="#292829"/>
<path d="M23.8506 13.3205L24.0017 13.1833H24.57L24.707 13.3205V13.8888L24.57 14.0396H24.0017L23.8506 13.8888V13.3205ZM21.4306 13.7091H23.6553V13.9699L23.9205 14.235H24.651L24.9023 13.9699V13.2395L24.651 12.988H23.9205L23.6553 13.2395V13.5138H21.3494L20.1515 14.7157H19.1781V14.911H20.2327L21.4306 13.7091Z" fill="#292829"/>
</g>
</g>
<defs>
<clipPath id="clip0_1_342">
<rect width="32" height="32" fill="white"/>
</clipPath>
</defs>
</svg>
